<svg version="1.1" xmlns="http://www.w3.org/2000/svg" xmlns:xlink="http://www.w3.org/1999/xlink" width="599.2049" height="313.01415" viewBox="0,0,599.2049,313.01415"><g transform="translate(58.93579,-17.37485)"><g data-paper-data="{&quot;isPaintingLayer&quot;:true}" fill-rule="nonzero" stroke-linejoin="miter" stroke-miterlimit="10" stroke-dasharray="" stroke-dashoffset="0" style="mix-blend-mode: normal"><path d="M-58.93578,329.67192v-299.34382h599.2049v299.34382z" fill="#ffffff" stroke="none" stroke-width="NaN" stroke-linecap="butt"/><text transform="translate(5.17524,72.94043) scale(1.25137,1.25137)" font-size="40" xml:space="preserve" fill="#373737" fill-rule="nonzero" stroke="none" stroke-width="1" stroke-linecap="butt" stroke-linejoin="miter" stroke-miterlimit="10" stroke-dasharray="" stroke-dashoffset="0" font-family="Sans Serif" font-weight="normal" text-anchor="start" style="mix-blend-mode: normal"><tspan x="0" dy="0">Grayscale</tspan></text><text transform="translate(4.29824,71.80945) scale(1.25137,1.25137)" font-size="40" xml:space="preserve" fill="#0a0a0a" fill-rule="nonzero" stroke="none" stroke-width="1" stroke-linecap="butt" stroke-linejoin="miter" stroke-miterlimit="10" stroke-dasharray="" stroke-dashoffset="0" font-family="Sans Serif" font-weight="normal" text-anchor="start" style="mix-blend-mode: normal"><tspan x="0" dy="0">Grayscale</tspan></text><g stroke="none" stroke-width="1" stroke-linecap="butt"><path d="M223.10707,202.90703l9.74369,40.19272l-9.55631,-2.71699c0,0 -8.24466,-0.28107 -11.33641,0.65582c-11.3364,3.5602 -11.4301,16.02087 -9.55631,22.11068c-4.12233,5.43398 -5.62135,13.95971 -6.46456,20.61165c-2.43592,-2.71699 -8.90049,-23.79709 -9.65,-27.26359c0,0 -3.27913,-31.29223 2.52961,-61.46019c5.80874,-30.16796 15.8335,-29.32476 15.8335,-29.32476c2.81068,10.86796 18.4568,37.19465 18.4568,37.19465z" fill="#c7c7c7"/><path d="M234.44348,247.87791c0,0 -40.28641,-22.01699 -44.87718,-42.90971l4.68446,-12.64805c0,0 6.46457,24.07816 16.48932,35.1335c5.43398,5.90242 22.48543,17.80097 22.48543,17.80097z" fill="#f0f0f0"/><path d="M187.41144,245.16092l-1.21796,-16.11457c1.49903,15.08398 16.20825,34.10291 16.20825,34.10291c-6.55825,-4.4034 -11.80485,-10.58689 -14.99029,-17.98834z" fill="#f0f0f0"/><path d="M208.49154,140.88471l-5.52767,36.35146c-0.09369,2.81068 -2.06117,5.99612 -3.09175,8.61942c-1.59272,4.12233 -2.71699,8.24466 -3.93495,12.46068c-2.81068,9.65 -3.46651,19.11263 -4.77815,29.04369c-2.52961,19.3 -1.49903,37.94417 4.77815,56.40097c-0.46845,0.28107 -2.06116,-3.37282 -2.90437,-2.6233c-0.84321,0.74951 2.81068,5.90243 2.15485,6.37088c-0.65582,0.46844 -3.56019,-5.52767 -4.30971,-4.77816c-0.74952,0.74951 1.6864,5.80874 1.96747,6.65194l-0.18738,0.18738c-4.02864,-3.93495 -15.08398,-28.20049 -12.92912,-72.14078c0.29857,-8.00164 1.16802,-15.96523 2.65688,-23.84224c0.84712,-4.48182 1.89476,-8.9356 3.15186,-13.35242c1.59272,-5.15291 3.65388,-10.11845 6.0898,-14.8966c7.77622,-15.92719 16.48933,-24.07816 16.86408,-24.45291z" fill="#828278"/></g><g stroke="none" stroke-width="1" stroke-linecap="butt"><path d="M291.3129,212.27597c0.18738,9.83738 0.37475,19.58106 0.46844,29.32476c0.09369,6.83932 1.21796,14.70923 0.09369,21.45486c-0.84321,5.15291 -5.71505,10.21213 -8.71311,14.42815c-1.21796,-2.6233 -2.34223,-8.80679 -4.4034,-11.89854c-2.06116,-3.18543 -4.96554,-5.62136 -8.33835,-7.21408c0,0 3.84126,-10.77427 -4.30971,-15.36504c-8.15097,-4.59078 -24.82767,4.59077 -24.82767,4.59077l11.89854,-33.54077l18.08204,-53.12184c0,0 20.2369,32.69757 19.95583,34.85242c-0.65583,5.34029 0,11.05534 0.09369,16.48932z" fill="#c7c7c7"/><path d="M240.90804,248.15898c0,0 45.53301,-26.42039 42.72233,-66.42572l6.46456,20.51796c-7.96359,14.8966 -19.29999,27.82573 -33.07232,37.56942c-4.87185,3.46651 -10.21214,5.62136 -16.11457,8.33835z" fill="#f0f0f0"/><path d="M270.42018,258.27743c0,0 25.29611,-28.66893 20.51796,-50.77961l2.52961,6.46456c0,0 4.87185,22.39175 -23.04757,44.31505z" fill="#f0f0f0"/><path d="M298.52697,256.87208c-0.65583,5.2466 -2.71699,10.11845 -4.77816,14.8966c-1.49903,3.37282 -4.49708,12.36699 -8.24466,13.86602c0,-1.12427 2.99806,-4.21603 1.78009,-5.2466c-1.31165,-0.37475 -2.52961,2.71699 -3.4665,3.18544c-0.37475,-1.12427 1.31165,-5.2466 0.84321,-6.37088c-0.28107,-0.18738 -1.78009,2.6233 -2.24854,2.34223c0.18738,-5.43398 2.34223,-10.77427 3.18543,-16.20825c0.84321,-5.62136 1.78009,-11.24271 2.34223,-16.86407c1.21796,-11.61748 0.74952,-23.42233 -1.40534,-34.85243c-1.78009,-9.74369 -4.68447,-19.20631 -8.61942,-28.20048c-1.87378,-4.30971 -8.7131,-16.30194 -8.7131,-16.30194l-7.30777,-29.32632c2.34223,-0.09213 8.15096,7.68409 9.74368,9.46419c5.2466,5.62136 9.93107,11.80486 13.86602,18.4568c4.68447,8.33835 8.33835,17.33253 10.68058,26.60777c2.6233,9.83738 6.93301,28.57524 2.34224,64.55194z" fill="#828282"/></g><path d="M236.0362,239.72694c0,0 -0.56214,8.05728 -0.46845,14.70922h-1.49903c0.09369,-3.37282 0.09369,-6.46456 0.09369,-6.46456c0,0 -6.37088,-5.15292 -8.43204,-7.40146c-6.55825,-7.30776 -14.33446,-27.07621 -15.45873,-34.47766l19.58106,10.30583c0.84321,2.81068 6.18349,23.32864 6.18349,23.32864z" fill="#3d3d3d" stroke="none" stroke-width="1" stroke-linecap="butt"/><path d="M263.2061,209.09053c-0.37476,5.90242 -5.99612,21.54854 -10.11845,27.82573c-4.49709,7.0267 -10.58689,10.77427 -12.17961,11.24272c0,1.7801 -0.09369,4.4034 -0.09369,6.18349h-1.6864c0.09369,-2.6233 0.28106,-14.33446 0.28106,-14.33446c0,0 5.24661,-24.07815 5.24661,-24.35922z" fill="#3d3d3d" stroke="none" stroke-width="1" stroke-linecap="butt"/><g stroke="none" stroke-width="1" stroke-linecap="butt"><g fill="#64645a"><path d="M219.17212,75.77064l-0.65583,-0.37476c0,-0.37475 0,-0.65582 0,-0.93689c0,-0.8432 -0.09369,-1.7801 -0.09369,-2.6233c-0.09369,-0.46845 0,-0.84321 0.28107,-1.21796c0.46845,0.09369 0.65582,0.18738 0.65582,0.56213c0,0.74952 0.09369,1.40534 0.09369,2.15485c0,0.74952 0,1.12427 0,1.68641c-0.09369,0.28107 -0.18738,0.46845 -0.28107,0.74952z"/><path d="M217.86047,76.70753l-0.74952,-0.18738c-0.09369,-0.28107 -0.09369,-0.65582 -0.18738,-0.93689c-0.18738,-0.8432 -0.46845,-1.68641 -0.74952,-2.52961c-0.18738,-0.65582 -0.18738,-0.65582 0,-1.21796c0.56214,0 0.65582,0.09369 0.74952,0.46844c0.18738,0.65582 0.37476,1.40534 0.56214,2.06117c0.18738,0.65582 0.28107,1.12428 0.37476,1.68641c0,0.18738 0,0.46844 0,0.65582z"/><path d="M219.92164,75.67694c0.09369,-0.56213 0.18738,-1.03058 0.37475,-1.6864c0.18738,-0.65582 0.37475,-1.40534 0.56213,-2.06117c0.09369,-0.37475 0.18738,-0.46845 0.74952,-0.46845c0.18738,0.37475 0.18738,0.84321 0,1.21797c-0.28107,0.8432 -0.56214,1.6864 -0.74952,2.52961c-0.09369,0.28107 -0.09368,0.65583 -0.18737,0.9369l-0.74952,0.18738c-0.09369,-0.28107 -0.09369,-0.46845 0,-0.65583z"/></g><path d="M207.27358,164.5881c0,0 -3.4665,-24.26553 -3.27912,-36.35145c0.18738,-9.93106 1.68641,-19.67476 3.4665,-29.41844c1.12427,-6.27719 4.12233,-23.32864 11.99224,-24.82767c9.08786,3.93495 10.21213,29.32475 10.58689,37.28835c0.56214,10.39951 1.12427,36.91359 0.37476,47.21942c-4.77815,2.06116 -23.14126,6.0898 -23.14126,6.0898z" fill="#64645a"/><path d="M210.45902,148.47355c0,0 -0.93689,-23.60971 1.03058,-42.06651c1.40534,-12.74174 4.59078,-21.26747 6.55826,-21.54854c4.87185,-0.74952 6.27718,19.76845 6.55825,24.92136c0.37475,6.74563 0.46845,28.38787 0,35.03981c-3.09175,1.40534 -14.14709,3.65389 -14.14709,3.65389z" fill="#3c3c32"/></g><g stroke="none" stroke-width="1" stroke-linecap="butt"><g fill="#64645a"><path d="M252.52552,75.58325l-0.65582,-0.37476c0,-0.37475 0,-0.65582 0,-0.93689c0,-0.8432 -0.09369,-1.7801 -0.09369,-2.6233c-0.09369,-0.46845 0,-0.84321 0.28107,-1.21796c0.46845,0.09369 0.65583,0.18738 0.65583,0.56213c0,0.74952 0.09369,1.40534 0.09369,2.15486c0,0.56213 0,1.12427 0,1.68641c-0.09369,0.28107 -0.18738,0.56213 -0.28107,0.74951z"/><path d="M251.21387,76.61384l-0.74952,-0.18738c-0.09369,-0.37475 -0.09369,-0.65582 -0.18738,-0.93689c-0.18738,-0.8432 -0.46844,-1.68641 -0.74951,-2.52961c-0.18738,-0.65582 -0.18738,-0.65583 0,-1.21796c0.56214,0 0.65582,0.09369 0.74951,0.37476c0.18738,0.65582 0.37476,1.40534 0.56214,2.06116c0.18738,0.65582 0.28106,1.12427 0.37476,1.68641c0,0.28107 0,0.46845 0,0.74952z"/><path d="M253.27503,75.58325c0.09369,-0.56213 0.18738,-1.03058 0.37476,-1.68641c0.18738,-0.65582 0.37476,-1.40534 0.56214,-2.06116c0.09369,-0.37475 0.18738,-0.46845 0.74951,-0.46845c0.18738,0.37475 0.18738,0.8432 0,1.21796c-0.28107,0.8432 -0.56213,1.68641 -0.74951,2.52961c-0.09369,0.28107 -0.09369,0.65583 -0.18738,0.9369l-0.74951,0.18738c0,-0.28107 -0.09369,-0.46845 0,-0.65583z"/></g><path d="M270.88862,176.1119c-4.21602,-5.90242 -25.76456,-19.76845 -27.07621,-21.26748c-2.24855,-9.65 -5.2466,-80.76019 7.68253,-80.85388c11.05534,-0.09369 12.55437,20.79903 14.14709,28.0131c2.24854,10.49321 5.62135,61.36651 5.2466,74.10825z" fill="#64645a"/><path d="M249.99591,160.37209c-0.28107,-17.61359 -2.90437,-70.64174 2.15486,-75.98203c5.05923,-5.34029 8.90049,20.04951 9.74369,27.07621c0.84321,6.55825 1.49902,30.26165 1.78009,49.37427z" fill="#3c3c32"/></g><g stroke="none" stroke-width="1" stroke-linecap="butt"><g fill="#64645a"><path d="M252.52552,75.58325l-0.65583,-0.37475c0,-0.37475 0,-0.65583 0,-0.9369c0,-0.8432 -0.09369,-1.7801 -0.09369,-2.6233c-0.09369,-0.46845 0,-0.8432 0.28107,-1.21796c0.46845,0.09369 0.65582,0.18738 0.65582,0.56213c0,0.74952 0.09369,1.40534 0.09369,2.15485c0,0.56213 0,1.12427 0,1.68641c-0.09369,0.28107 -0.18738,0.56213 -0.28107,0.74951z"/><path d="M251.21387,76.61384l-0.74951,-0.18738c-0.09369,-0.37475 -0.09369,-0.65582 -0.18738,-0.93689c-0.18738,-0.8432 -0.46844,-1.68641 -0.74951,-2.52962c-0.18738,-0.65582 -0.18738,-0.65582 0,-1.21796c0.56214,0 0.65582,0.09369 0.74951,0.37476c0.18738,0.65582 0.37476,1.40534 0.56214,2.06117c0.18738,0.65582 0.28107,1.12427 0.37475,1.6864c0,0.28107 0,0.46845 0,0.74952z"/><path d="M253.27503,75.58325c0.09369,-0.56213 0.18738,-1.03058 0.37476,-1.6864c0.18738,-0.65582 0.37475,-1.40534 0.56213,-2.06117c0.09369,-0.37475 0.18738,-0.46845 0.74952,-0.46845c0.18738,0.37475 0.18738,0.84321 0,1.21796c-0.28107,0.8432 -0.56214,1.68641 -0.74952,2.52961c-0.09369,0.28107 -0.09369,0.65582 -0.18738,0.93689l-0.74951,0.18738c0,-0.28107 -0.09369,-0.46845 0,-0.65583z"/></g><path d="M243.81241,154.84443c-2.24855,-9.65 -5.2466,-80.76019 7.68253,-80.85388c11.05534,-0.09369 12.55436,20.79903 14.14708,28.01311c1.66976,7.79221 3.95949,37.85192 4.87417,58.02844c-3.35197,2.33736 -6.75879,4.57938 -10.18278,6.78955c-7.34681,-5.51763 -15.71879,-11.06041 -16.521,-11.97721z" fill="#64645a"/><path d="M249.99591,160.37209c-0.28107,-17.61359 -2.90437,-70.64174 2.15485,-75.98203c5.05923,-5.34029 8.90049,20.04951 9.74369,27.07621c0.84321,6.55825 1.49903,30.26165 1.7801,49.37427z" fill="#3c3c32"/></g><path d="M258.8027,218.92791c-10.49321,9.93106 -27.16991,8.71311 -38.6,0.8432c-10.96165,-7.49515 -17.42621,-24.73398 -18.17572,-37.56941c-0.74952,-12.08592 -3.09175,-29.69952 4.12233,-40.19272c7.8699,-11.3364 13.11651,-14.52184 28.57524,-14.8966c10.30582,-0.37475 20.33059,3.4665 27.82573,10.4932c6.08981,5.80874 9.74369,14.99029 10.4932,23.23495c1.68641,18.64417 -4.68446,48.99951 -14.24077,58.08738z" fill="#636363" stroke="none" stroke-width="1" stroke-linecap="butt"/><g stroke="none" stroke-width="1" stroke-linecap="butt"><path d="M188.81678,195.03714c5.80874,-30.16796 15.8335,-29.32476 15.8335,-29.32476c2.12677,8.2235 9.10253,19.96464 13.58801,27.78708c-4.13904,5.25082 -9.18069,8.9675 -14.14652,13.7888c-2.72415,2.64486 -5.8202,6.59294 -9.14418,7.97054c-3.19148,1.3227 -3.75053,7.90144 -6.75637,9.43001c-0.73436,0.37345 -1.55397,0.60508 -2.38515,0.80771c-0.09094,0.01184 -0.1815,0.0249 -0.27166,0.03917c0.34261,-9.39496 1.26372,-20.01465 3.28236,-30.49856z" fill="#c8c8be"/><path d="" fill="#c8c8be"/><path d="M189.5663,204.9682l4.68446,-12.64805c0,0 1.20152,6.99938 7.09687,18.33002c-2.06891,0.95619 -4.16681,4.15713 -6.08286,4.91316c-3.88664,-4.62732 -4.64646,-5.80741 -5.69847,-10.59513z" fill="#f0e6d2"/><path d="" fill="#f0e6d2"/><path d="" fill="#f0e6d2"/><path d="M202.96387,177.23616c-0.09369,2.81068 -2.06117,5.99612 -3.09175,8.61942c-1.59272,4.12233 -2.71699,8.24466 -3.93495,12.46068c-2.34685,8.05752 -3.19137,15.9844 -4.16974,24.16242c-1.16655,0.79479 -2.33318,1.57801 -3.57621,2.21014c-0.73436,0.37345 -1.55397,0.60508 -2.38515,0.80771c-0.7964,0.10369 -1.56338,0.30109 -2.28948,0.58077c-0.49772,0.15535 -0.97279,0.34091 -1.40672,0.585c-0.38744,0.21794 -0.7307,0.48034 -1.03857,0.77838c-0.5948,0.45127 -1.13755,0.96757 -1.61764,1.53833c-0.00823,-3.68549 0.07838,-7.5357 0.27525,-11.55013c0.46845,-12.55437 2.34223,-25.01504 5.80873,-37.19465c1.59272,-5.15291 3.65389,-10.11845 6.08981,-14.89661c7.77621,-15.92717 16.4893,-24.07812 16.86408,-24.45291z" fill="#828278"/><path d="" fill="#828278"/><path d="M208.49154,140.88472v0v-0.00001z" fill="#828278"/></g><path d="" fill="#3c3c32" stroke="none" stroke-width="1" stroke-linecap="butt"/><path d="M210.27163,206.09248l3.28633,1.72965c-0.74455,0.88377 -1.50326,1.75986 -2.28122,2.62479c-0.48136,-1.69641 -0.82685,-3.18088 -1.00511,-4.35443z" fill="#3c3c32" stroke="none" stroke-width="1" stroke-linecap="butt"/><path d="" fill="#3c3c32" stroke="none" stroke-width="1" stroke-linecap="butt"/><g stroke="none" stroke-width="1" stroke-linecap="butt"><g fill="#64645a"><path d="M219.17212,75.77064l-0.65582,-0.37475c0,-0.37475 0,-0.65583 0,-0.9369c0,-0.8432 -0.09369,-1.7801 -0.09369,-2.6233c-0.09369,-0.46845 0,-0.84321 0.28107,-1.21796c0.46845,0.09369 0.65583,0.18738 0.65583,0.56214c0,0.74952 0.09369,1.40534 0.09369,2.15485c0,0.74952 0,1.12427 0,1.6864c-0.09369,0.28107 -0.18738,0.46845 -0.28107,0.74952z"/><path d="M217.86047,76.70753l-0.74952,-0.18738c-0.09369,-0.28107 -0.09369,-0.65583 -0.18738,-0.9369c-0.18738,-0.8432 -0.46844,-1.6864 -0.74951,-2.52961c-0.18738,-0.65582 -0.18738,-0.65583 0,-1.21796c0.56214,0 0.65582,0.09369 0.74951,0.46845c0.18738,0.65582 0.37476,1.40534 0.56214,2.06117c0.18738,0.65582 0.28107,1.12427 0.37476,1.68641c0,0.18738 0,0.46845 0,0.65583z"/><path d="M219.92164,75.67695c0.09369,-0.56213 0.18738,-1.03058 0.37475,-1.68641c0.18738,-0.65582 0.37476,-1.40534 0.56214,-2.06117c0.09369,-0.37475 0.18738,-0.46845 0.74952,-0.46845c0.18738,0.37475 0.18738,0.84321 0,1.21796c-0.28107,0.8432 -0.56214,1.68641 -0.74952,2.52961c-0.09369,0.28107 -0.09368,0.65582 -0.18738,0.93689l-0.74952,0.18738c-0.09369,-0.28107 -0.09369,-0.46844 0,-0.65582z"/></g><path d="M207.27358,164.58811c0,0 -3.46651,-24.26553 -3.27913,-36.35145c0.18738,-9.93107 1.68641,-19.67476 3.46651,-29.41845c1.12427,-6.27719 4.12233,-23.32864 11.99223,-24.82767c9.08786,3.93495 10.21214,29.32476 10.58689,37.28835c0.56214,10.39951 1.12427,36.91359 0.37475,47.21942c-4.77815,2.06116 -23.14126,6.08981 -23.14126,6.08981z" fill="#64645a"/><path d="M210.45902,148.47355c0,0 -0.9369,-23.60971 1.03058,-42.06651c1.40534,-12.74174 4.59078,-21.26747 6.55826,-21.54854c4.87185,-0.74952 6.27718,19.76844 6.55825,24.92135c0.37475,6.74563 0.46845,28.38787 0,35.03981c-3.09175,1.40534 -14.14709,3.65389 -14.14709,3.65389z" fill="#3c3c32"/></g><path d="M202.02698,182.2017c-0.74952,-12.08592 -3.09175,-29.69951 4.12233,-40.19272c7.8699,-11.33641 13.1165,-14.52185 28.57524,-14.8966c10.30582,-0.37475 20.33058,3.4665 27.82573,10.4932c3.21585,3.06742 4.41907,1.9087 6.20738,6.22256c-6.90368,6.21388 -11.73967,11.73218 -18.91086,17.63532c-5.3214,4.38045 -7.74194,11.19517 -14.81059,16.37909c-10.32744,7.57381 -18.48696,16.0399 -26.8761,25.38203c-5.55013,-8.39907 -5.61642,-12.17406 -6.13313,-21.02287z" fill="#64645a" stroke="none" stroke-width="1" stroke-linecap="butt"/><path d="" fill="#64645a" stroke="none" stroke-width="1" stroke-linecap="butt"/><g stroke="none" stroke-width="1" stroke-linecap="butt"><path d="M224.13766,170.11578c0.09369,-0.37475 -0.00001,-0.74951 1.49902,-0.8432c4.59078,-0.46845 13.95971,-0.18738 17.23883,-0.28107c3.27912,-0.09369 6.93301,0.46845 6.93301,1.40534c0,0.93689 -1.12427,1.59272 -3.09175,1.59272c-3.56019,0.09369 -7.12039,0.09369 -10.58689,0c-2.90437,0 -5.71505,-0.09369 -8.52572,-0.28107c-1.03058,-0.09369 -3.84126,-0.09369 -3.4665,-1.59272z" fill="#000000"/><path d="M243.43765,168.89782c1.68641,0 2.52962,0.09369 2.52962,0.09369c-0.56214,1.21796 -2.43592,4.87185 -2.99806,4.87185c-0.65582,0 -2.43592,-3.74757 -2.99805,-4.96553c0,0 2.99805,0 3.4665,0z" fill="#ffffff"/><path d="M248.21581,160.74685c-5.15291,5.43398 -19.01892,4.02864 -23.42232,0.37475c-3.74758,-3.09175 -2.90437,-9.46261 0.93689,-12.46068c3.84126,-2.99806 9.93107,-2.43592 14.42816,-2.6233c4.59078,0.56214 7.58884,0.37476 9.36893,5.15291c1.31165,3.46651 0.65582,7.58883 -1.31166,9.55631z" fill="#f01446"/><path d="M244.65562,150.6284c2.43592,-0.18738 2.52961,3.09175 2.43592,4.59078c-0.09369,1.49903 -0.18738,4.02864 -2.34223,3.84126c-2.15485,-0.18738 -2.52962,-2.52961 -2.43592,-3.84126c0.09369,-1.31165 -0.18738,-4.49708 2.34223,-4.59078z" fill="#6e1e3c"/><path d="M228.07261,150.6284c2.43592,-0.18738 2.6233,3.09175 2.43592,4.59078c-0.18738,1.49903 -0.18738,4.02864 -2.34223,3.84126c-2.15485,-0.18738 -2.52962,-2.52961 -2.43592,-3.84126c0.09369,-1.31165 -0.09369,-4.49708 2.34223,-4.59078z" fill="#6e1e3c"/><path d="M211.86436,155.96869c-0.56214,0 -0.93689,-0.37476 -1.03059,-0.9369c-0.18738,-0.84321 -0.18738,-1.6864 -0.18738,-2.52961c0.09369,-0.84321 0.74951,-1.12427 1.49903,-1.40534c0.56214,0.84321 0.65583,1.96748 0.37476,2.90437c0,0.74952 0,1.49903 -0.65582,1.96748z" fill="#000000"/><path d="M261.70707,156.24976c-1.31165,-0.56214 -1.12427,-1.59272 -1.03058,-2.71699c0,-1.21796 0.18738,-1.31166 1.31165,-1.7801c1.21796,1.12427 1.31165,2.90437 0.18738,4.12233c-0.18738,0.09369 -0.28107,0.18738 -0.46845,0.37476z" fill="#000000"/><path d="M231.6328,168.89782h2.06117c-0.84321,1.49903 -2.24855,4.02864 -2.71699,4.02864c-0.46845,0 -1.7801,-2.34223 -2.52962,-3.93495c0.09369,0 3.09175,-0.09369 3.18544,-0.09369z" fill="#ffffff"/></g><g stroke="none" stroke-width="1" stroke-linecap="butt"><path d="M224.13766,170.11578c0.09369,-0.37475 0,-0.74951 1.49903,-0.8432c4.59078,-0.46845 13.95971,-0.18738 17.23883,-0.28107c3.27913,-0.09369 6.93301,0.46845 6.93301,1.40534c0,0.93689 -1.12427,1.59272 -3.09175,1.59272c-3.5602,0.09369 -7.12039,0.09369 -10.58689,0c-2.90437,0 -5.71505,-0.09369 -8.52572,-0.28107c-1.03058,-0.09369 -3.84126,-0.09369 -3.46651,-1.59272z" fill="#000000"/><path d="M243.43765,168.89781c1.68641,0 2.52962,0.09369 2.52962,0.09369c-0.56214,1.21796 -2.43592,4.87185 -2.99806,4.87185c-0.65582,0 -2.43592,-3.74758 -2.99805,-4.96554c0,0 2.99805,0 3.4665,0z" fill="#ffffff"/><path d="M248.21581,160.74684c-5.15291,5.43398 -19.01892,4.02864 -23.42232,0.37476c-3.74758,-3.09175 -2.90437,-9.46261 0.93689,-12.46068c3.84126,-2.99806 9.93107,-2.43592 14.42816,-2.6233c4.59078,0.56214 7.58884,0.37475 9.36894,5.15291c1.31165,3.46651 0.65582,7.58883 -1.31166,9.55631z" fill="#f01446"/><path d="M244.65562,150.6284c2.43592,-0.18738 2.52961,3.09175 2.43592,4.59078c-0.09369,1.49903 -0.18738,4.02864 -2.34223,3.84126c-2.15485,-0.18738 -2.52962,-2.52961 -2.43592,-3.84126c0.09369,-1.31165 -0.18737,-4.49708 2.34224,-4.59078z" fill="#6e1e3c"/><path d="M228.07261,150.6284c2.43592,-0.18738 2.6233,3.09175 2.43592,4.59078c-0.18738,1.49903 -0.18738,4.02864 -2.34223,3.84126c-2.15485,-0.18738 -2.52962,-2.52961 -2.43592,-3.84126c0.09369,-1.31165 -0.09368,-4.49708 2.34224,-4.59078z" fill="#6e1e3c"/><path d="M211.86436,155.96869c-0.56214,0 -0.93689,-0.37476 -1.03059,-0.93689c-0.18738,-0.84321 -0.18738,-1.6864 -0.18738,-2.52961c0.09369,-0.84321 0.74952,-1.12427 1.49903,-1.40534c0.56214,0.84321 0.65583,1.96748 0.37476,2.90437c0,0.74952 0,1.49903 -0.65583,1.96747z" fill="#000000"/><path d="M261.70707,156.24976c-1.31165,-0.56214 -1.12427,-1.59272 -1.03058,-2.71699c0,-1.21796 0.18738,-1.31166 1.31165,-1.7801c1.21796,1.12427 1.31165,2.90437 0.18738,4.12233c-0.18738,0.09369 -0.28107,0.18738 -0.46845,0.37476z" fill="#000000"/><path d="M231.6328,168.89781h2.06116c-0.84321,1.49903 -2.24854,4.02864 -2.71699,4.02864c-0.46845,0 -1.7801,-2.34223 -2.52962,-3.93495c0.09369,0 3.09175,-0.09369 3.18544,-0.09369z" fill="#ffffff"/></g><path d="M376.63315,34.20653l-293.68247,293.68247" fill="none" stroke="#000000" stroke-width="5" stroke-linecap="round"/></g></g></svg>